<svg width="1440" height="373" viewBox="0 0 1440 373" fill="none" xmlns="http://www.w3.org/2000/svg">
  <path
    d="M0 84.7028L206.543 60.986L411.486 111.808L618.029 74.5384L822.971 69.4563L1029.51 79.6206L1234.46 0L1441 3.38811V372.692H1234.46H1029.51H822.971H618.029H411.486H206.543H0V84.7028Z"
    fill="#393646" />
  <path
    d="M0 115.196L206.543 76.2325H411.486L618.029 127.054L822.971 135.524L1029.51 110.114L1234.46 99.9493L1441 105.031V372.692H1234.46H1029.51H822.971H618.029H411.486H206.543H0V115.196Z"
    fill="#3E3A4B" />
  <path
    d="M0 111.808L206.543 213.451L411.486 184.652L618.029 176.182L822.971 206.675L1029.51 96.5612L1234.46 189.734L1441 118.584V372.692H1234.46H1029.51H822.971H618.029H411.486H206.543H0V111.808Z"
    fill="#443D4F" />
  <path
    d="M0 242.25L206.543 181.264L411.486 230.392L618.029 238.862L822.971 260.885L1029.51 249.026L1234.46 182.958L1441 272.743V372.692H1234.46H1029.51H822.971H618.029H411.486H206.543H0V242.25Z"
    fill="#494153" />
  <path
    d="M0 323.565L206.543 296.46L411.486 313.4L618.029 318.482L822.971 260.885L1029.51 284.601L1234.46 315.094L1441 294.766V372.692H1234.46H1029.51H822.971H618.029H411.486H206.543H0V323.565Z"
    fill="#4F4557" />
</svg>